<?xml version="1.0" standalone="no"?>
<!DOCTYPE svg PUBLIC "-//W3C//DTD SVG 20010904//EN"
 "http://www.w3.org/TR/2001/REC-SVG-20010904/DTD/svg10.dtd">
<svg version="1.0" xmlns="http://www.w3.org/2000/svg"
 width="2967.000000pt" height="1792.000000pt" viewBox="0 0 2967.000000 1792.000000"
 preserveAspectRatio="xMidYMid meet">

<g transform="translate(0.000000,1792.000000) scale(0.100000,-0.100000)"
fill="#000000" stroke="none">
<path d="M12769 13776 c-2 -3 -51 -7 -109 -11 -370 -22 -699 -74 -1011 -160
-1460 -403 -2637 -1495 -3176 -2945 -47 -126 -143 -432 -143 -455 0 -4 31 39
69 96 90 135 184 251 298 367 67 69 98 110 119 155 138 311 339 652 546 926
137 180 219 273 420 475 l138 138 137 -142 c209 -217 422 -394 665 -554 l115
-76 -39 -127 c-120 -398 -217 -878 -283 -1400 l-7 -53 130 0 131 0 5 43 c52
396 107 703 182 1002 35 140 103 384 110 397 2 3 61 -21 131 -54 111 -53 344
-148 350 -143 2 1 -8 28 -21 61 -13 32 -34 101 -47 152 l-24 94 -147 70 c-87
42 -148 77 -148 85 0 56 241 584 356 780 302 515 647 841 1024 967 58 19 125
36 150 38 l45 3 3 -485 2 -485 125 0 125 0 0 482 c0 315 4 484 10 488 6 4 36
1 68 -6 460 -95 894 -505 1243 -1174 66 -127 159 -331 204 -450 13 -33 33 -84
44 -113 l21 -52 -146 -73 -146 -72 -23 -90 c-13 -49 -33 -116 -45 -148 -12
-32 -20 -60 -17 -63 7 -7 260 97 365 150 l92 46 11 -27 c21 -54 107 -380 142
-538 86 -384 150 -822 183 -1247 l6 -88 130 0 129 0 -6 83 c-51 663 -169 1331
-324 1831 -17 54 -31 104 -31 110 1 6 60 50 133 98 203 134 384 283 591 490
l189 188 115 -112 c753 -741 1217 -1693 1348 -2768 22 -181 30 -672 15 -867
-19 -241 -69 -553 -118 -748 -5 -16 -6 -208 -3 -425 l5 -395 33 82 32 82 0
300 0 301 93 0 94 0 27 123 c75 345 101 610 101 1027 0 424 -24 666 -101 1026
-262 1229 -992 2312 -2019 2998 -608 406 -1279 658 -1984 746 -267 33 -667 60
-682 46z m-961 -473 c-322 -312 -596 -747 -825 -1311 -30 -75 -57 -139 -59
-141 -7 -8 -203 129 -331 230 -142 114 -467 432 -461 451 6 17 153 129 298
227 408 277 878 489 1360 615 52 14 100 25 107 26 7 0 -33 -44 -89 -97z m2183
57 c550 -151 1037 -389 1496 -733 l121 -91 -38 -46 c-62 -74 -308 -309 -410
-392 -115 -92 -331 -248 -345 -248 -6 0 -28 44 -49 98 -223 566 -503 1019
-829 1340 -62 61 -109 112 -102 112 6 0 77 -18 156 -40z"/>
<path d="M20351 12765 c-193 -43 -332 -117 -470 -249 -141 -136 -217 -272
-277 -494 -3 -10 -9 -9 -28 4 -46 29 -121 -10 -141 -74 -7 -26 -7 -27 143
-215 l93 -118 39 35 c21 19 52 42 68 50 28 14 30 14 59 -17 17 -18 50 -59 74
-92 46 -63 206 -268 309 -395 33 -41 60 -77 60 -81 0 -7 -75 -75 -109 -99 -22
-15 -20 -17 91 -160 105 -135 116 -145 149 -148 69 -6 139 91 94 128 -27 23
-16 30 49 30 150 0 339 53 482 137 92 53 248 204 309 298 50 76 99 189 127
291 31 115 31 334 0 458 -86 342 -347 607 -692 701 -89 24 -340 30 -429 10z"/>
<path d="M19395 11829 c-27 -23 -50 -45 -50 -49 0 -4 49 -69 108 -145 l109
-137 26 25 c15 14 41 34 59 44 l32 19 -110 142 c-60 78 -113 142 -117 142 -4
-1 -29 -19 -57 -41z"/>
<path d="M18980 11366 c-131 -28 -124 -36 26 -29 78 3 157 3 176 -1 l34 -6
-11 -81 -10 -80 -80 -35 c-90 -39 -118 -60 -94 -69 8 -3 49 10 91 30 42 19 82
35 88 35 6 0 13 -14 17 -30 7 -40 28 -33 29 9 0 45 19 53 130 59 81 4 98 2
138 -18 25 -12 46 -25 46 -29 0 -4 -23 -24 -50 -44 -28 -21 -48 -42 -45 -47
10 -16 25 -11 66 21 59 46 72 36 67 -55 -3 -60 -10 -86 -38 -142 -29 -56 -40
-69 -60 -70 -54 -2 -56 -4 -31 -23 l24 -19 -48 -57 c-27 -31 -67 -72 -88 -90
-30 -26 -37 -37 -29 -50 8 -15 18 -8 74 47 36 34 78 80 95 101 l30 39 54 -16
c29 -9 64 -16 77 -16 23 0 24 -2 19 -45 -23 -162 -142 -334 -297 -425 -36 -22
-70 -40 -76 -40 -10 -1 -83 -59 -73 -60 3 0 20 11 39 25 22 16 36 21 41 14 14
-24 132 51 219 140 97 98 138 171 172 303 37 148 13 320 -65 458 -41 74 -158
188 -232 227 -133 69 -297 96 -425 69z m376 -86 c44 -22 90 -49 104 -60 l25
-21 -40 6 c-38 6 -153 -7 -189 -21 -13 -5 -16 3 -16 49 0 63 7 87 25 87 7 0
48 -18 91 -40z m303 -341 c14 -40 35 -199 27 -206 -5 -6 -112 14 -128 23 -4 3
9 37 27 76 19 40 38 87 41 105 8 41 19 42 33 2z"/>
<path d="M18775 11179 c-102 -77 -99 -73 -86 -98 15 -28 20 -27 74 14 25 19
48 35 50 35 2 0 -5 -38 -16 -84 -18 -79 -18 -85 -2 -110 l17 -26 42 31 c22 17
65 47 93 67 58 40 61 47 37 73 -15 17 -19 16 -70 -22 l-55 -40 7 28 c3 15 13
54 21 86 12 53 12 61 -2 83 -8 13 -19 24 -23 24 -4 0 -43 -28 -87 -61z"/>
<path d="M18563 11098 c-101 -143 -143 -344 -104 -508 21 -89 84 -209 145
-277 50 -54 111 -103 130 -103 17 0 3 31 -24 52 l-29 23 77 0 c42 0 99 4 125
9 l48 8 -7 -71 c-5 -60 -4 -71 8 -71 18 0 28 41 28 110 l0 47 58 21 c60 23
207 103 231 127 26 26 -55 -2 -159 -55 -126 -63 -138 -66 -142 -40 -5 32 -22
29 -28 -5 -5 -28 -9 -31 -74 -43 -41 -8 -90 -11 -121 -7 -50 6 -115 36 -115
53 0 4 27 27 60 50 33 24 60 47 60 52 0 25 -26 17 -82 -24 -38 -28 -66 -42
-71 -37 -33 33 -7 174 48 262 23 35 27 38 49 27 14 -6 33 -8 42 -4 15 6 13 10
-15 27 l-33 20 23 27 c13 15 43 48 68 74 32 34 42 51 37 65 -6 15 -15 10 -59
-37 -29 -30 -63 -68 -75 -84 l-22 -29 -78 18 c-42 11 -78 20 -80 21 -8 4 30
138 54 190 29 64 64 154 60 154 -2 0 -16 -19 -33 -42z m12 -358 c34 -2 36 -18
9 -71 -15 -30 -35 -81 -44 -114 l-17 -60 -17 55 c-10 30 -20 89 -23 131 l-6
77 44 -9 c24 -4 49 -8 54 -9z"/>
<path d="M20085 11010 c-10 -12 -34 -30 -52 -41 -18 -11 -33 -24 -33 -27 1
-10 201 -267 208 -267 10 0 112 78 112 86 0 11 -201 268 -211 268 -3 1 -14 -8
-24 -19z"/>
<path d="M18928 10924 c-60 -32 -65 -95 -12 -154 27 -30 44 -40 66 -40 29 0
30 1 16 23 -9 12 -24 24 -34 25 -21 4 -44 29 -44 47 0 6 6 19 13 29 12 17 17
13 59 -43 l45 -61 21 23 c27 28 28 73 4 110 -38 57 -81 70 -134 41z m100 -46
c15 -15 15 -41 0 -56 -9 -9 -17 -4 -35 20 -13 18 -23 36 -23 40 0 12 45 9 58
-4z"/>
<path d="M19197 10849 c-57 -41 -66 -52 -47 -64 12 -7 120 70 120 85 0 22 -20
16 -73 -21z"/>
<path d="M19043 10736 c-68 -50 -78 -62 -63 -71 17 -10 75 32 104 75 14 22 25
40 23 40 -2 0 -30 -20 -64 -44z"/>
<path d="M19081 10706 c-28 -41 -51 -79 -51 -83 0 -5 7 -18 15 -30 l15 -21 51
19 c28 11 54 17 57 14 3 -3 -10 -24 -28 -46 -30 -38 -32 -43 -19 -65 8 -12 16
-24 19 -25 8 -4 180 45 180 51 0 4 -6 14 -13 24 -12 17 -15 16 -65 -3 -29 -12
-55 -21 -57 -21 -13 0 -2 22 30 60 35 42 35 43 18 64 -10 11 -18 22 -19 24 -1
1 -25 -6 -53 -18 -28 -11 -54 -20 -56 -20 -13 0 -2 22 30 60 35 42 35 43 18
64 -10 11 -19 22 -20 24 -1 2 -24 -30 -52 -72z"/>
<path d="M12740 10113 l0 -553 125 0 125 0 0 553 0 552 -125 0 -125 0 0 -552z"/>
<path d="M17822 10373 c-219 -207 -301 -291 -296 -302 3 -9 21 -81 40 -161 61
-262 96 -510 117 -813 l12 -178 565 391 c311 216 571 398 578 405 11 10 -22
58 -179 261 -276 357 -510 657 -523 671 -9 10 -79 -51 -314 -274z"/>
<path d="M19301 10451 c-21 -21 -20 -34 8 -105 16 -40 0 -55 -29 -26 -13 13
-19 28 -15 39 3 10 -2 25 -14 35 -18 17 -19 17 -26 -3 -14 -46 50 -131 100
-131 12 0 30 9 40 20 18 20 18 22 -4 76 -13 30 -21 58 -18 61 13 12 37 -8 37
-29 0 -28 28 -71 41 -63 22 14 8 65 -29 105 -43 45 -63 49 -91 21z"/>
<path d="M19517 10274 c-32 -31 -57 -58 -55 -59 5 -4 163 -55 170 -55 4 0 17
32 28 71 22 73 19 88 -16 89 -6 0 -24 2 -40 5 -25 5 -37 -3 -87 -51z"/>
<path d="M19177 10243 c-20 -14 -37 -30 -37 -35 0 -12 8 -10 37 9 25 16 25 16
20 -2 -14 -51 -16 -74 -9 -79 12 -7 82 45 82 61 0 11 -7 9 -27 -6 -14 -12 -27
-20 -29 -18 -2 2 1 20 7 41 14 52 1 61 -44 29z"/>
<path d="M19891 10243 c-10 -21 -8 -23 15 -23 21 0 25 -3 19 -17 -5 -10 -10
-33 -13 -51 -5 -37 -18 -50 -35 -33 -17 17 -27 13 -27 -10 0 -21 27 -56 36
-46 3 3 17 -6 30 -18 50 -47 124 -44 174 6 54 55 48 147 -13 193 -23 17 -44
21 -102 22 -67 0 -74 -2 -84 -23z"/>
<path d="M19262 10130 c-18 -16 -32 -31 -32 -34 0 -18 26 -57 42 -62 19 -6 88
30 88 47 0 14 -16 11 -54 -12 -34 -20 -35 -20 -45 0 -9 16 -6 24 21 46 19 16
27 30 22 35 -6 6 -22 -1 -42 -20z"/>
<path d="M19061 10141 c-86 -9 -78 -31 12 -31 86 0 108 6 100 26 -5 14 -18 15
-112 5z"/>
<path d="M19370 10045 c0 -6 5 -16 11 -22 7 -7 1 -17 -23 -34 -18 -12 -35 -24
-37 -25 -1 -2 0 -8 4 -14 4 -7 19 -2 42 16 33 25 37 26 48 10 7 -9 15 -13 18
-9 3 5 -10 27 -28 48 -19 22 -34 35 -35 30z"/>
<path d="M8910 8975 l0 -875 203 2 202 3 5 518 5 518 450 -521 450 -520 213 0
212 0 0 875 0 875 -205 0 -205 0 0 -526 c0 -439 -2 -525 -13 -515 -8 6 -211
243 -453 526 l-439 515 -212 0 -213 0 0 -875z"/>
<path d="M11605 9420 c-248 -53 -414 -205 -477 -439 -29 -109 -29 -343 0 -453
68 -253 250 -398 556 -444 162 -25 389 -15 531 23 196 51 342 183 370 336 l7
37 -193 0 -194 0 -19 -45 c-23 -57 -92 -119 -159 -142 -77 -27 -243 -24 -317
5 -68 27 -135 90 -166 157 -26 57 -47 172 -42 237 l3 43 548 3 547 2 0 33 c0
69 -22 202 -45 276 -63 200 -225 328 -474 375 -119 23 -358 20 -476 -4z m399
-201 c39 -14 69 -35 104 -73 58 -64 82 -130 82 -227 l0 -69 -346 0 -347 0 7
58 c10 84 22 121 58 182 37 62 103 112 177 134 71 22 200 20 265 -5z"/>
<path d="M15987 9424 c-177 -32 -310 -108 -360 -204 -48 -95 -58 -240 -22
-326 32 -78 129 -152 248 -189 41 -13 169 -42 286 -65 237 -46 305 -67 343
-108 56 -58 54 -149 -3 -208 -50 -51 -114 -69 -249 -69 -106 0 -120 3 -178 29
-66 30 -117 79 -128 121 l-6 25 -184 0 -184 0 6 -27 c32 -133 174 -245 382
-300 88 -24 115 -26 287 -27 204 -1 279 10 415 60 185 69 269 198 258 399 -6
105 -37 169 -111 224 -90 69 -162 91 -427 136 -212 36 -278 52 -326 80 -107
63 -94 211 23 261 57 24 170 35 236 23 79 -14 127 -39 169 -89 l35 -40 182 0
182 0 -6 23 c-16 49 -61 120 -96 148 -60 48 -180 99 -280 119 -114 24 -371 26
-492 4z"/>
<path d="M12880 9408 c0 -2 107 -295 238 -653 l238 -650 215 0 214 0 115 405
115 405 58 3 c51 3 58 1 67 -20 6 -13 58 -194 116 -403 58 -209 109 -383 113
-388 4 -4 101 -6 216 -5 l209 3 238 645 c130 355 237 648 238 653 0 4 -83 7
-184 7 l-184 0 -20 -77 c-12 -43 -57 -220 -102 -393 -45 -173 -86 -332 -91
-352 l-10 -38 -68 0 -67 0 -110 428 -109 427 -217 3 -217 2 -12 -42 c-6 -24
-58 -216 -114 -428 l-102 -385 -69 0 -68 0 -110 428 -109 427 -214 0 c-117 0
-213 -1 -213 -2z"/>
<path d="M12743 8665 l0 -680 123 0 124 0 0 342 0 342 -114 313 c-63 172 -119
324 -124 338 -5 15 -9 -230 -9 -655z"/>
<path d="M15133 8592 l-142 -387 -16 -160 c-49 -493 -136 -968 -256 -1390 -43
-151 -55 -186 -68 -182 -9 3 -74 32 -146 65 -71 33 -171 76 -221 95 l-91 34
33 -92 c18 -50 38 -120 46 -155 l13 -62 134 -64 c74 -35 140 -69 146 -74 29
-24 -190 -522 -352 -800 -141 -241 -270 -409 -452 -590 -150 -149 -272 -238
-431 -314 -103 -49 -252 -96 -306 -96 l-34 0 0 615 0 615 -125 0 -125 0 0
-615 0 -615 -34 0 c-61 0 -208 49 -331 110 -379 189 -713 578 -1000 1165 -92
187 -215 479 -215 509 0 13 187 112 274 146 17 6 26 22 35 67 8 32 28 101 47
153 18 52 32 96 31 97 -5 5 -227 -84 -345 -139 -73 -33 -134 -59 -136 -57 -8
10 -101 352 -137 508 -66 287 -159 840 -159 946 l0 25 -131 0 -132 0 7 -72
c36 -386 166 -1034 289 -1435 l34 -111 -91 -58 c-235 -151 -458 -336 -678
-562 l-147 -151 -143 142 c-302 301 -534 603 -743 967 -80 139 -164 302 -210
410 -23 52 -50 88 -135 175 -122 126 -208 231 -293 360 -32 50 -60 92 -62 94
-3 2 5 -30 16 -70 135 -484 359 -971 638 -1389 750 -1121 1933 -1870 3238
-2050 195 -27 496 -50 641 -50 215 1 593 37 824 80 291 53 617 146 852 243
l59 24 -69 37 c-38 20 -98 58 -134 85 -54 41 -68 47 -90 40 -197 -62 -271 -84
-355 -105 -55 -14 -109 -28 -120 -31 -11 -3 27 38 83 92 322 306 609 762 832
1323 l57 143 89 -60 c213 -144 470 -365 629 -540 l80 -88 40 31 c22 17 66 56
99 87 l59 55 -96 105 c-183 199 -431 409 -664 561 -78 51 -142 99 -142 105 -1
7 17 73 39 145 161 528 277 1210 319 1868 12 179 26 630 20 630 -2 0 -68 -175
-146 -388z m-3999 -2997 c198 -406 400 -702 653 -953 96 -96 117 -121 96 -116
-499 120 -964 319 -1383 592 -146 95 -370 262 -370 276 0 19 353 360 465 450
61 48 159 121 219 162 l110 74 63 -158 c35 -86 101 -233 147 -327z"/>
<path d="M16300 7315 l0 -375 70 0 70 0 2 254 3 255 220 -255 219 -254 83 0
83 0 0 375 0 375 -70 0 -70 0 0 -255 c0 -140 -3 -255 -7 -255 -5 0 -105 115
-223 255 l-215 254 -82 0 -83 1 0 -375z"/>
<path d="M17350 7432 c0 -309 6 -341 79 -413 59 -59 137 -89 252 -96 155 -10
278 25 351 100 62 64 68 101 68 404 l0 263 -79 0 -79 0 -4 -263 -3 -264 -30
-48 c-40 -65 -97 -95 -178 -95 -78 0 -135 27 -173 82 l-29 41 -3 274 -3 273
-84 0 -85 0 0 -258z"/>
<path d="M18340 7635 l0 -55 140 0 140 0 0 -320 0 -320 85 0 85 0 0 320 0 320
140 0 140 0 0 55 0 55 -365 0 -365 0 0 -55z"/>
<path d="M16740 6748 c-148 -268 -320 -519 -513 -749 l-107 -129 20 -71 c10
-39 24 -106 31 -151 l12 -80 45 44 c80 78 263 290 362 423 165 219 326 478
439 703 l41 82 -112 0 c-99 0 -114 2 -134 20 l-21 21 -63 -113z"/>
</g>
</svg>
